<svg width="56" height="62" viewBox="0 0 56 62" fill="none" xmlns="http://www.w3.org/2000/svg">
<path d="M53.136 40.1009C54.2233 37.1916 54.7753 34.134 54.7753 31C54.7753 27.8657 54.2235 24.8081 53.1361 21.8991C54.266 21.0739 55 19.7512 55 18.2627C55 15.7675 52.9385 13.7375 50.4044 13.7375C49.7507 13.7375 49.129 13.8735 48.5655 14.1167C44.4702 9.27952 38.8387 6.07671 32.5659 5.01703C32.3084 2.76032 30.3594 1 28 1C25.6406 1 23.6916 2.76032 23.4342 5.01703C17.1614 6.07659 11.53 9.27929 7.43451 14.1166C6.87105 13.8733 6.2493 13.7373 5.59558 13.7373C3.06154 13.7373 1 15.7674 1 18.2625C1 19.7511 1.73396 21.0739 2.86403 21.899C1.77667 24.8081 1.22466 27.8657 1.22466 31C1.22466 34.134 1.77667 37.1916 2.86403 40.1009C1.73396 40.926 1 42.2488 1 43.7373C1 46.2325 3.06154 48.2625 5.59546 48.2625C6.24918 48.2625 6.87092 48.1265 7.43451 47.8832C11.53 52.7205 17.1614 55.9232 23.4341 56.9827C23.6916 59.2397 25.6404 61 28 61C30.3596 61 32.3084 59.2397 32.5658 56.9829C38.8385 55.9233 44.47 52.7206 48.5654 47.8833C49.129 48.1266 49.7507 48.2627 50.4044 48.2627C52.9383 48.2627 54.9999 46.2326 54.9999 43.7373C54.9999 42.2488 54.2659 40.9261 53.136 40.1009ZM53.19 18.2627C53.19 19.7751 51.9404 21.0057 50.4043 21.0057C48.8682 21.0057 47.6187 19.7751 47.6187 18.2627C47.6187 16.7502 48.8683 15.5196 50.4043 15.5196C51.9403 15.5196 53.19 16.7501 53.19 18.2627ZM28 2.78218C29.536 2.78218 30.7857 4.01271 30.7857 5.52519C30.7857 7.03766 29.536 8.26832 28 8.26832C26.464 8.26832 25.2144 7.03778 25.2144 5.52531C25.2144 4.01283 26.464 2.78218 28 2.78218ZM5.59558 15.5195C7.13154 15.5195 8.38119 16.7501 8.38119 18.2625C8.38119 19.775 7.13154 21.0057 5.59558 21.0057C4.05962 21.0057 2.80985 19.7751 2.80985 18.2625C2.80985 16.7499 4.05962 15.5195 5.59558 15.5195ZM2.80997 43.7373C2.80997 42.2249 4.05962 40.9943 5.59558 40.9943C7.13154 40.9943 8.38119 42.2249 8.38119 43.7373C8.38119 45.2498 7.13154 46.4804 5.59558 46.4804C4.05962 46.4804 2.80997 45.2499 2.80997 43.7373ZM28 59.2178C26.464 59.2178 25.2144 57.9873 25.2144 56.4748C25.2144 54.9623 26.464 53.7318 28 53.7318C29.536 53.7318 30.7856 54.9623 30.7856 56.4748C30.7856 57.9873 29.536 59.2178 28 59.2178ZM32.4086 55.2001C31.8481 53.3237 30.0845 51.9495 27.9999 51.9495C25.9154 51.9495 24.1518 53.3237 23.5912 55.2001C17.8532 54.1956 12.6995 51.2638 8.92161 46.855C9.70721 46.0427 10.1909 44.945 10.1909 43.7373C10.1909 41.2422 8.12938 39.2122 5.59546 39.2122C5.2213 39.2122 4.85801 39.2574 4.50955 39.341C3.5315 36.6724 3.03452 33.8711 3.03452 31C3.03452 28.1288 3.5315 25.3274 4.50967 22.659C4.85813 22.7426 5.22154 22.7878 5.59558 22.7878C8.1295 22.7878 10.191 20.7578 10.191 18.2625C10.191 17.0549 9.70721 15.9572 8.92161 15.1449C12.6994 10.736 17.8532 7.80424 23.5912 6.7998C24.1517 8.6762 25.9153 10.0504 27.9999 10.0504C30.0845 10.0504 31.8481 8.6762 32.4086 6.7998C38.1465 7.80436 43.3003 10.7362 47.0781 15.1449C46.2926 15.9572 45.8087 17.0549 45.8087 18.2625C45.8087 20.7577 47.8703 22.7877 50.4042 22.7877C50.7783 22.7877 51.1418 22.7425 51.4902 22.6589C52.4683 25.3273 52.9652 28.1287 52.9652 30.9999C52.9652 33.871 52.4683 36.6723 51.4901 39.3408C51.1416 39.2573 50.7782 39.212 50.4042 39.212C47.8703 39.212 45.8087 41.2421 45.8087 43.7372C45.8087 44.9448 46.2926 46.0425 47.078 46.8549C43.3004 51.2638 38.1465 54.1956 32.4086 55.2001ZM50.4044 46.4805C48.8685 46.4805 47.6188 45.2499 47.6188 43.7373C47.6188 42.2248 48.8685 40.9943 50.4044 40.9943C51.9404 40.9943 53.19 42.2249 53.19 43.7373C53.19 45.2498 51.9404 46.4805 50.4044 46.4805ZM37.4324 28.6901C38.3614 27.7235 38.8812 26.4522 38.8812 25.0908C38.8812 22.1954 36.4891 19.84 33.5489 19.84C33.1327 19.84 32.724 19.888 32.3257 19.9802L29.3153 14.8457C28.9742 14.264 28.4219 13.8475 27.76 13.6728C27.0981 13.4982 26.4083 13.587 25.8176 13.9228C25.2268 14.2586 24.8038 14.8025 24.6264 15.4543C24.4491 16.1061 24.5393 16.7853 24.8803 17.3671L24.9575 17.4987L16.791 26.2921L11.8222 29.117C11.1404 29.5045 10.6523 30.1317 10.4479 30.883C10.2497 31.6114 10.3425 32.3698 10.7071 33.0272C9.79722 33.6159 9.14519 34.5038 8.85959 35.5533C8.55119 36.6865 8.70768 37.8667 9.29999 38.8769C9.89217 39.887 10.8521 40.6106 12.0027 40.9141C12.3884 41.016 12.7795 41.0662 13.1678 41.0662C13.8529 41.0662 14.5285 40.9084 15.1497 40.6007C15.5456 41.2403 16.1648 41.6996 16.9044 41.8948C17.1597 41.9622 17.4186 41.9956 17.6758 41.9954C18.1043 41.9954 18.5273 41.9017 18.9203 41.7198L25.1249 47.8296C25.4937 48.1928 25.9783 48.3743 26.463 48.3743C26.9475 48.3743 27.4322 48.1927 27.801 47.8295L29.2527 46.4C29.9904 45.6735 29.9904 44.4914 29.2527 43.7648L24.1772 38.767L35.9301 36.2131L36.0073 36.3449C36.481 37.1528 37.3433 37.605 38.2291 37.605C38.6632 37.605 39.1028 37.4963 39.505 37.2677C40.0957 36.9318 40.5188 36.388 40.6961 35.7362C40.8735 35.0844 40.7832 34.4052 40.4423 33.8234L37.4324 28.6901ZM33.5489 21.6222C35.4912 21.6222 37.0714 23.1781 37.0714 25.0908C37.0714 25.8007 36.8565 26.473 36.4644 27.0393L33.2942 21.6322C33.3786 21.6262 33.4635 21.6222 33.5489 21.6222ZM12.4711 39.1928C11.7873 39.0123 11.2178 38.5838 10.8673 37.9858C10.5167 37.3879 10.4246 36.6879 10.6078 36.0147C10.7679 35.426 11.1209 34.9233 11.613 34.5755L14.2394 39.0552C13.6876 39.3008 13.0691 39.3503 12.4711 39.1928ZM17.3728 40.1733C17.0769 40.0953 16.8303 39.9096 16.6784 39.6506L12.3088 32.1977C12.1569 31.9386 12.1168 31.6355 12.1961 31.3441C12.2754 31.0526 12.464 30.8098 12.7271 30.6602L17.0333 28.2121L22.5459 37.6144L18.2398 40.0625C17.9767 40.2121 17.6688 40.2514 17.3728 40.1733ZM27.973 45.14L26.5215 46.5693C26.4901 46.6 26.4357 46.5999 26.4047 46.5693L20.5519 40.8059L22.5404 39.6754L27.9731 45.025C28.004 45.0557 28.004 45.1095 27.973 45.14ZM24.2343 36.9298L18.4796 27.1146L25.9068 19.1176L34.9811 34.5944L24.2343 36.9298ZM38.9479 35.2751C38.8957 35.467 38.7721 35.6265 38.6001 35.7244C38.2415 35.9281 37.7817 35.8068 37.5747 35.4539L26.4478 16.4761C26.2408 16.1231 26.364 15.6702 26.7225 15.4664C26.8365 15.4015 26.9637 15.3685 27.0933 15.3685C27.1591 15.3685 27.2259 15.3771 27.2916 15.3944C27.4865 15.4459 27.6485 15.5675 27.7479 15.737L38.8749 34.7148C38.9742 34.8842 39.0002 35.0832 38.9479 35.2751ZM45.0353 31C44.8677 31.2859 44.5635 31.4457 44.2508 31.4457C44.0973 31.4457 43.9417 31.4072 43.7992 31.3261L40.3771 29.3806C39.9443 29.1345 39.796 28.5895 40.0459 28.1634C40.2958 27.7371 40.8491 27.5911 41.282 27.8372L44.7041 29.7828C45.1369 30.0288 45.2852 30.5738 45.0353 31ZM33.1902 17.123V13.2319C33.1902 12.7398 33.5953 12.3408 34.0951 12.3408C34.5949 12.3408 35 12.7398 35 13.2319V17.123C35 17.6151 34.5949 18.0141 34.0951 18.0141C33.5953 18.0141 33.1902 17.6151 33.1902 17.123ZM45.8228 25.6714H41.6531C41.1533 25.6714 40.7481 25.2724 40.7481 24.7803C40.7481 24.2882 41.1533 23.8892 41.6531 23.8892H45.8228C46.3226 23.8892 46.7278 24.2882 46.7278 24.7803C46.7278 25.2724 46.3226 25.6714 45.8228 25.6714ZM40.1193 20.3265L43.7992 18.2345C44.232 17.9883 44.7854 18.1345 45.0353 18.5606C45.2852 18.9868 45.1369 19.5318 44.7041 19.7779L41.0242 21.8699C40.8817 21.9509 40.726 21.9894 40.5726 21.9894C40.2598 21.9894 39.9557 21.8296 39.7881 21.5438C39.5382 21.1176 39.6865 20.5725 40.1193 20.3265ZM37.0904 17.8893L39.1752 14.3335C39.4251 13.9074 39.9786 13.7612 40.4114 14.0074C40.8442 14.2535 40.9925 14.7985 40.7426 15.2246L38.6577 18.7804C38.4902 19.0663 38.186 19.2261 37.8732 19.2261C37.7198 19.2261 37.5641 19.1876 37.4216 19.1066C36.9888 18.8606 36.8405 18.3156 37.0904 17.8893Z" fill="#010205" stroke="#010205" stroke-width="0.5"/>
</svg>
