<svg width="60" height="60" viewBox="0 0 60 60" fill="none" xmlns="http://www.w3.org/2000/svg">
<path d="M0.25 52.5V2.5C0.25 1.25746 1.25746 0.25 2.5 0.25C3.74254 0.25 4.75 1.25746 4.75 2.5V52.5C4.75 54.0162 5.98376 55.25 7.5 55.25H57.5C58.7425 55.25 59.75 56.2575 59.75 57.5C59.75 58.7425 58.7425 59.75 57.5 59.75H7.5C3.50233 59.75 0.25 56.4977 0.25 52.5Z" fill="#010205" stroke="#F3F3F3" stroke-width="0.5"/>
<path d="M47.4602 9.60141L47.5355 9.83978C48.5811 9.50925 49.9369 9.99876 50.3543 11.2902L52.5174 17.9833L52.5174 17.9834C52.8996 19.1652 52.2506 20.4341 51.0687 20.8166C49.8623 21.2033 48.6107 20.5315 48.2349 19.3677L48.2348 19.3677L47.894 18.313L47.7117 17.7492L47.435 18.2731L40.8631 30.7169C40.8631 30.7169 40.8631 30.717 40.8631 30.717C40.473 31.4554 39.7072 31.9167 38.8734 31.9167H22.6869H22.5306L22.4621 32.0573L16.6467 44.0006L16.6466 44.0009C16.0981 45.1305 14.7398 45.5774 13.6403 45.0391L13.6398 45.0389C12.5225 44.495 12.0578 43.1493 12.6016 42.032L19.1006 28.6824L19.1007 28.6823C19.4776 27.9077 20.2619 27.4167 21.1232 27.4167H37.3671H37.5178L37.5881 27.2835L43.3514 16.3704L43.6387 15.8264L43.0534 16.0158L42.2128 16.2877C42.2126 16.2878 42.2125 16.2878 42.2124 16.2878C41.0272 16.667 39.762 16.0205 39.3786 14.8387C38.9964 13.6567 39.6456 12.3878 40.8278 12.0054L47.4965 9.84899C47.5098 9.8469 47.5258 9.84335 47.5434 9.83716L47.4602 9.60141ZM47.4602 9.60141C47.4576 9.60232 47.4548 9.60232 47.4521 9.60232C47.4493 9.60232 47.4466 9.60232 47.444 9.60324M47.4602 9.60141C48.6174 9.23557 50.1265 9.77255 50.5922 11.2133L52.7553 17.9065C53.1801 19.2199 52.4586 20.6299 51.1452 21.0547L47.444 9.60324M47.444 9.60324L40.7509 11.7675L47.444 9.60324ZM37.3671 27.1667L42.963 16.5705L43.2073 16.4915L43.1303 16.2536L42.9093 16.1369L42.7893 16.364L37.3671 27.1667ZM37.3671 27.1667H21.1232C20.1662 27.1667 19.2946 27.7124 18.8759 28.573L37.3671 27.1667ZM47.4521 9.85232L47.4552 9.85228L47.4521 9.85232Z" fill="#010205" stroke="#F3F3F3" stroke-width="0.5"/>
</svg>
