<svg width="64" height="64" viewBox="0 0 64 64" fill="none" xmlns="http://www.w3.org/2000/svg">
<path d="M28.9997 2.00049H22.9997C7.99993 2.00049 2 8.00042 2 23.0002V41C2 55.9998 7.99993 61.9998 22.9997 61.9998H40.9995C55.9994 61.9998 61.9993 55.9998 61.9993 41V35.0001" stroke="#010205" stroke-width="3" stroke-linecap="round" stroke-linejoin="round"/>
<path d="M61.7285 6.68061C58.0385 15.8905 48.7686 28.4303 41.0287 34.6403L36.2888 38.4202C35.6888 38.8702 35.0888 39.2302 34.3988 39.5002C34.3988 39.0502 34.3688 38.6002 34.3088 38.1202C34.0388 36.1103 33.1388 34.2203 31.5189 32.6303C29.8689 30.9803 27.8889 30.0503 25.8489 29.7803C25.3689 29.7503 24.8889 29.7203 24.4089 29.7503C24.6789 29.0003 25.0689 28.3103 25.5789 27.7404L29.3589 23.0004C35.5688 15.2605 48.1387 5.93061 57.3185 2.24066C58.7285 1.70066 60.1085 2.12066 60.9785 2.99065C61.8785 3.89064 62.2985 5.27062 61.7285 6.68061Z" stroke="#010205" stroke-width="3" stroke-linecap="round" stroke-linejoin="round"/>
<path d="M34.429 39.4701C34.429 42.11 33.409 44.63 31.519 46.55C30.049 48.02 28.069 49.04 25.6991 49.34L19.7891 49.9699C16.5792 50.3299 13.8192 47.6 14.1792 44.33L14.8092 38.4201C15.3792 33.1701 19.7591 29.8102 24.4391 29.7202C24.9191 29.6902 25.3991 29.7202 25.8791 29.7502C27.919 30.0202 29.899 30.9502 31.549 32.6002C33.169 34.2201 34.069 36.0801 34.339 38.0901C34.399 38.5701 34.429 39.0501 34.429 39.4701Z" stroke="#010205" stroke-width="3" stroke-linecap="round" stroke-linejoin="round"/>
<path d="M43.5482 31.9404C43.5482 25.6705 38.4783 20.5706 32.1783 20.5706" stroke="#010205" stroke-width="3" stroke-linecap="round" stroke-linejoin="round"/>
</svg>
