<svg width="60" height="60" viewBox="0 0 60 60" fill="none" xmlns="http://www.w3.org/2000/svg">
<path d="M44.9199 44.92L45.0834 44.8873L58.2958 42.2447C59.0899 42.0859 59.6815 41.4188 59.7445 40.6115C59.8074 39.8042 59.3261 39.0535 58.5664 38.7737L58.6528 38.5391L58.5664 38.7737L30.9055 28.5827C30.2434 28.3388 29.5 28.502 29.0011 29.0008C29.0011 29.0009 29.0011 29.0009 29.0011 29.0009M44.9199 44.92L28.3481 30.9919C28.0705 30.2383 28.2564 29.3921 28.8243 28.8241L29.0011 29.0009M44.9199 44.92L44.8873 45.0834L42.2447 58.2958C42.0859 59.0897 41.4187 59.6816 40.6115 59.7445C39.8043 59.8073 39.0535 59.3261 38.7737 58.5664L38.5391 58.6528L38.7737 58.5664L28.5827 30.9055M44.9199 44.92L28.5827 30.9055M29.0011 29.0009C28.5021 29.5 28.3388 30.2435 28.5827 30.9055M29.0011 29.0009L28.5827 30.9055M39.6475 50.4735L39.9536 51.3043L40.1272 50.4361L41.6088 43.0279C41.752 42.3118 42.3119 41.7521 43.0278 41.6088L50.4361 40.1272L51.3043 39.9536L50.4735 39.6475L33.8405 33.5195L33.3322 33.3322L33.5195 33.8405L39.6475 50.4735ZM24.6215 46.9644L24.8585 47.0441L24.6215 46.9644C24.3033 47.9114 23.2777 48.4211 22.3308 48.1028L22.3308 48.1027C19.4458 47.1333 16.7363 45.4995 14.4426 43.2058C6.49981 35.2631 6.49981 22.3853 14.4426 14.4426C22.3853 6.4998 35.2631 6.4998 43.2058 14.4426C45.4995 16.7363 47.1333 19.4459 48.1027 22.3308L48.1027 22.3308C48.4211 23.2777 47.9114 24.3033 46.9644 24.6215L46.9644 24.6215C46.0175 24.9399 44.9916 24.4302 44.6735 23.4832C43.8781 21.116 42.5376 18.8906 40.6477 17.0007C34.1177 10.4707 23.5306 10.4707 17.0007 17.0007C10.4707 23.5307 10.4707 34.1178 17.0007 40.6477C18.8906 42.5376 21.116 43.8781 23.4832 44.6735C24.4301 44.9917 24.9399 46.0173 24.6215 46.9644ZM22.824 34.8244L22.824 34.8244C23.2367 35.2369 23.6798 35.5971 24.1456 35.9056C24.9784 36.4576 25.2061 37.58 24.6544 38.4128C24.1027 39.2455 22.9801 39.4733 22.1473 38.9216C21.4813 38.4803 20.8505 37.9671 20.2659 37.3825C15.5393 32.6558 15.5393 24.9926 20.2659 20.2659C24.9926 15.5393 32.6558 15.5393 37.3825 20.2659C37.967 20.8505 38.4802 21.4813 38.9215 22.1473C39.4733 22.9801 39.2455 24.1027 38.4127 24.6544C37.5799 25.2061 36.4575 24.9784 35.9056 24.1456C35.5971 23.6798 35.2369 23.2368 34.8244 22.8241L34.8244 22.824C31.5106 19.5103 26.1378 19.5103 22.824 22.824C19.5102 26.1378 19.5102 31.5106 22.824 34.8244ZM11.1773 11.1773C1.43121 20.9235 1.43121 36.7249 11.1773 46.471C16.0507 51.3445 22.4344 53.7806 28.8243 53.7806C29.8231 53.7806 30.6332 54.5906 30.6332 55.5894C30.6332 56.5884 29.8231 57.3983 28.8243 57.3983C21.5142 57.3983 14.1983 54.6083 8.61919 49.0291C-2.53973 37.8703 -2.53973 19.7781 8.61919 8.61919C19.7781 -2.53973 37.8703 -2.53973 49.0291 8.61919C54.6082 14.1983 57.3985 21.5142 57.3985 28.8241C57.3985 29.8231 56.5885 30.633 55.5896 30.633C54.5906 30.633 53.7807 29.8231 53.7807 28.8241C53.7807 22.4344 51.3445 16.0507 46.471 11.1773C36.7249 1.43122 20.9235 1.43122 11.1773 11.1773Z" fill="#010205" stroke="#F3F3F3" stroke-width="0.5"/>
</svg>
